
<global>
ampeg_attack=0.002
ampeg_release=0.3
</global>

<group>
group_label=Group

<region>
hikey=B2
hivel=127
lokey=A#2
lovel=0
offset=2061
pitch_keycenter=A#2
sample=Lespaul_Rhythm_Plop_MP_A#2.opus
volume=+3.94
</region>

<region>
hikey=B3
hivel=127
lokey=A#3
lovel=0
offset=1191
pitch_keycenter=A#3
sample=Lespaul_Rhythm_Plop_MP_A#3.opus
volume=+5.73
</region>

<region>
hikey=B4
hivel=127
lokey=A#4
lovel=0
offset=1728
pitch_keycenter=A#4
sample=Lespaul_Rhythm_Plop_MP_A#4.opus
volume=+2.12
</region>

<region>
hikey=B5
hivel=127
lokey=A#5
lovel=0
offset=4567
pitch_keycenter=A#5
sample=Lespaul_Rhythm_Plop_MP_A#5.opus
volume=+5.72
</region>

<region>
hikey=C#3
hivel=127
lokey=C3
lovel=0
offset=1135
pitch_keycenter=C3
sample=Lespaul_Rhythm_Plop_MP_C3.opus
volume=-0.47
</region>

<region>
end=152086
hikey=C#4
hivel=127
lokey=C4
lovel=0
offset=-480
sample=Lespaul_Rhythm_Plop_MP_C4.opus
volume=+1.80
</region>

<region>
hikey=C#5
hivel=127
lokey=C5
lovel=0
offset=-51
pitch_keycenter=C5
sample=Lespaul_Rhythm_Plop_MP_C5.opus
volume=-0.83
</region>

<region>
end=114317
hikey=C#6
hivel=127
lokey=C6
lovel=0
offset=2166
pitch_keycenter=C6
sample=Lespaul_Rhythm_Plop_MP_C6.opus
volume=-6.38
</region>

<region>
hikey=D#2
hivel=127
lokey=C2
lovel=0
offset=2302
pitch_keycenter=D2
sample=Lespaul_Rhythm_Plop_MP_D2.opus
volume=+2.91
</region>

<region>
hikey=D#3
hivel=127
lokey=D3
lovel=0
offset=2108
pitch_keycenter=D3
sample=Lespaul_Rhythm_Plop_MP_D3.opus
volume=+0.66
</region>

<region>
hikey=D#4
hivel=127
lokey=D4
lovel=0
offset=-480
pitch_keycenter=D4
sample=Lespaul_Rhythm_Plop_MP_D4.opus
volume=+2.28
</region>

<region>
hikey=D#5
hivel=127
lokey=D5
lovel=0
offset=3713
pitch_keycenter=D5
sample=Lespaul_Rhythm_Plop_MP_D5.opus
volume=-5.40
</region>

<region>
hikey=F2
hivel=127
lokey=E2
lovel=0
offset=2125
pitch_keycenter=E2
sample=Lespaul_Rhythm_Plop_MP_E2.opus
volume=-3.78
</region>

<region>
end=150962
hikey=F3
hivel=127
lokey=E3
lovel=0
offset=2880
pitch_keycenter=E3
sample=Lespaul_Rhythm_Plop_MP_E3.opus
volume=+0.25
</region>

<region>
hikey=F4
hivel=127
lokey=E4
lovel=0
offset=-480
pitch_keycenter=E4
sample=Lespaul_Rhythm_Plop_MP_E4.opus
volume=+5.31
</region>

<region>
end=152663
hikey=F5
hivel=127
lokey=E5
lovel=0
offset=-252
pitch_keycenter=E5
sample=Lespaul_Rhythm_Plop_MP_E5.opus
volume=-1.96
</region>

<region>
end=143832
hikey=G2
hivel=127
lokey=F#2
lovel=0
offset=1123
pitch_keycenter=F#2
sample=Lespaul_Rhythm_Plop_MP_F#2.opus
volume=-2.98
</region>

<region>
hikey=G3
hivel=127
lokey=F#3
lovel=0
offset=-480
pitch_keycenter=F#3
sample=Lespaul_Rhythm_Plop_MP_F#3.opus
volume=+4.29
</region>

<region>
hikey=G4
hivel=127
lokey=F#4
lovel=0
offset=1447
pitch_keycenter=F#4
sample=Lespaul_Rhythm_Plop_MP_F#4.opus
volume=-2.28
</region>

<region>
end=146286
hikey=G5
hivel=127
lokey=F#5
lovel=0
offset=-480
pitch_keycenter=F#5
sample=Lespaul_Rhythm_Plop_MP_F#5.opus
volume=+0.04
</region>

<region>
hikey=A2
hivel=127
lokey=G#2
lovel=0
offset=169
pitch_keycenter=G#2
sample=Lespaul_Rhythm_Plop_MP_G#2.opus
volume=-3.84
</region>

<region>
end=149239
hikey=A3
hivel=127
lokey=G#3
lovel=0
offset=97
pitch_keycenter=G#3
sample=Lespaul_Rhythm_Plop_MP_G#3.opus
volume=+4.22
</region>

<region>
hikey=A4
hivel=127
lokey=G#4
lovel=0
offset=1599
pitch_keycenter=G#4
sample=Lespaul_Rhythm_Plop_MP_G#4.opus
volume=+0.50
</region>

<region>
end=145676
hikey=A5
hivel=127
lokey=G#5
lovel=0
offset=1060
pitch_keycenter=G#5
sample=Lespaul_Rhythm_Plop_MP_G#5.opus
volume=-1.97
</region>
</group>